<svg xmlns="http://www.w3.org/2000/svg" width="65.011" height="52.775" viewBox="0 0 65.011 52.775">
  <g id="Group_315" data-name="Group 315" transform="translate(-38.995 -43.704)">
    <path id="Path_584" data-name="Path 584" d="M75.881,70.672a4.158,4.158,0,0,0-1.064-.751,8.084,8.084,0,0,0-1.228-.491c-.417-.13-.852-.243-1.292-.338l-.143-.031V64.376a4.3,4.3,0,0,1,.426.1,3.639,3.639,0,0,1,1.081.492,2.706,2.706,0,0,1,.719.729,2.994,2.994,0,0,1,.315.627.875.875,0,0,0,.816.58.855.855,0,0,0,.692-.347.871.871,0,0,0,.137-.776,4.131,4.131,0,0,0-.428-.963,4.238,4.238,0,0,0-1.18-1.249,5.363,5.363,0,0,0-1.666-.77,6.75,6.75,0,0,0-.912-.184V60.778a.927.927,0,0,0-1.855,0v1.79a6.7,6.7,0,0,0-1.336.247,5.055,5.055,0,0,0-1.626.808A3.755,3.755,0,0,0,66.263,64.9a3.6,3.6,0,0,0-.382,1.651,3.543,3.543,0,0,0,.286,1.463,3.125,3.125,0,0,0,.888,1.136,5.561,5.561,0,0,0,1.446.824,12.655,12.655,0,0,0,1.8.551v5.3c-.154-.021-.307-.044-.455-.072a3.945,3.945,0,0,1-1.28-.474,2.874,2.874,0,0,1-.915-.877,3.226,3.226,0,0,1-.437-1.038A.889.889,0,0,0,65.667,73a.877.877,0,0,0-.191.714,4.769,4.769,0,0,0,.4,1.257,4.114,4.114,0,0,0,1.2,1.462,5.58,5.58,0,0,0,1.893.912,8,8,0,0,0,1.323.247V79.41a.927.927,0,1,0,1.855,0V77.629a6.6,6.6,0,0,0,1.491-.289,5.265,5.265,0,0,0,1.7-.9,4.259,4.259,0,0,0,1.137-1.4,3.939,3.939,0,0,0,.414-1.8,3.706,3.706,0,0,0-.278-1.486A3.477,3.477,0,0,0,75.881,70.672Zm-6.528-2.3a3.812,3.812,0,0,1-1.021-.515,1.505,1.505,0,0,1-.486-.583,1.976,1.976,0,0,1-.147-.8,1.818,1.818,0,0,1,.8-1.574,3.72,3.72,0,0,1,1.8-.577v4.33C69.942,68.566,69.625,68.473,69.353,68.376ZM72.8,71.14a5.957,5.957,0,0,1,1.412.593,1.788,1.788,0,0,1,.676.683,2.229,2.229,0,0,1,.2,1,2.127,2.127,0,0,1-.236,1.011,2.211,2.211,0,0,1-.692.771,3.53,3.53,0,0,1-1.147.514,5.477,5.477,0,0,1-.863.148v-4.9C72.387,71.02,72.6,71.081,72.8,71.14Z" fill="#0065a4" stroke="#0065a4" stroke-miterlimit="10" stroke-width="0.25"/>
    <path id="Path_585" data-name="Path 585" d="M102.95,69.795a.928.928,0,0,0-.468-.533l-1.324-.651,1.173-4.538a.927.927,0,0,0-.666-1.13l-1.832-.474v-6a.927.927,0,0,0-.928-.927H74.453a.938.938,0,0,0-.232-.168l-21.5-10.568a.926.926,0,0,0-1.241.423l-2.068,4.207-1.429-.369a.927.927,0,0,0-1.129.666l-1.5,5.809H43.455a.927.927,0,0,0-.927.927v9.983l-1.136,4.4-1.362,5.27a.926.926,0,0,0,.665,1.13l1.833.473v6a.927.927,0,0,0,.927.927H67.8L89.644,95.384a.917.917,0,0,0,.408.095.926.926,0,0,0,.833-.518l2.068-4.208,1.428.37a.93.93,0,0,0,1.13-.666l1.5-5.81H98.9a.927.927,0,0,0,.928-.927V76.755L102.9,70.5A.926.926,0,0,0,102.95,69.795Zm-49.422,13a9.992,9.992,0,0,0-9.146-8.854v-7.69A9.99,9.99,0,0,0,53.528,57.4H88.587a10,10,0,0,0,9.391,8.871v7.654a10,10,0,0,0-9.391,8.872ZM100.3,64.506l-.47,1.822V64.385Zm-2.325-.1A8.146,8.146,0,0,1,90.453,57.4h7.525ZM52.731,46.878l14.663,7.206L51.241,49.909Zm-4.318,4.215,1.26.326h0l15.946,4.121H47.263Zm-2.352,6.3h5.6a8.137,8.137,0,0,1-7.28,6.99V57.4Zm-4,18.286.471-1.821V75.8Zm2.325.12a8.138,8.138,0,0,1,7.28,6.991h-7.28ZM89.63,93.311,74.966,86.1,91.119,90.28ZM93.947,89.1l-1.259-.325h0L76.74,84.647H95.1Zm-3.494-6.3a8.147,8.147,0,0,1,7.525-7.013v7.013Zm10.027-11.56.2-.788.148.072Z" fill="#0065a4" stroke="#0065a4" stroke-miterlimit="10" stroke-width="2"/>
  </g>
</svg>
