<svg xmlns="http://www.w3.org/2000/svg" width="43.75" height="50" viewBox="0 0 43.75 50">
  <g id="icon_lock_alt" transform="translate(8 -2)">
    <path id="Path_511" data-name="Path 511" d="M23.875,0A15.747,15.747,0,0,0,8.25,15.866V18.75H5.125A3.126,3.126,0,0,0,2,21.875v25A3.126,3.126,0,0,0,5.125,50h37.5a3.126,3.126,0,0,0,3.125-3.125v-25a3.126,3.126,0,0,0-3.125-3.125H39.5V15.866A15.747,15.747,0,0,0,23.875,0Zm-12.5,15.866a12.636,12.636,0,0,1,12.5-12.741,12.636,12.636,0,0,1,12.5,12.741V18.75h-25Zm31.25,31.009H5.125v-25h37.5Zm-12.5-12.5a6.25,6.25,0,1,0-6.25,6.25A6.248,6.248,0,0,0,30.125,34.375ZM23.875,37.5A3.125,3.125,0,1,1,27,34.375,3.13,3.13,0,0,1,23.875,37.5Z" transform="translate(-10 2)" fill="#0065a4"/>
  </g>
</svg>
