<svg id="icon_calendar" xmlns="http://www.w3.org/2000/svg" width="50" height="50" viewBox="0 0 50 50">
  <path id="Path_513" data-name="Path 513" d="M49.816,8.788a3.085,3.085,0,0,0-2.941-2.213H43.75v4.85a4.688,4.688,0,0,1-9.375,0V6.575H15.609v4.85a4.688,4.688,0,0,1-9.375,0V6.575H3.125A3.085,3.085,0,0,0,.184,8.788H0V46.875A3.126,3.126,0,0,0,3.125,50h43.75A3.126,3.126,0,0,0,50,46.875V8.788ZM46.875,46.875H3.125v-25h43.75ZM10.922,12.988a1.563,1.563,0,0,0,1.563-1.562V1.563a1.563,1.563,0,0,0-3.125,0v9.863A1.563,1.563,0,0,0,10.922,12.988Zm28.141,0a1.563,1.563,0,0,0,1.563-1.562V1.563a1.563,1.563,0,0,0-3.125,0v9.863A1.563,1.563,0,0,0,39.063,12.988Z" fill="#0065a4"/>
</svg>
