<svg xmlns="http://www.w3.org/2000/svg" width="81.126" height="51.938" viewBox="0 0 81.126 51.938">
  <g id="Group_316" data-name="Group 316" transform="translate(-39.5 -50.005)">
    <path id="Path_586" data-name="Path 586" d="M74.2,77.314a7.647,7.647,0,0,0-1.954-1.381,15.113,15.113,0,0,0-2.289-.915c-.783-.243-1.6-.456-2.424-.634l-.781-.167V64.941a8.935,8.935,0,0,1,1.423.273,7.1,7.1,0,0,1,2.11.962,5.334,5.334,0,0,1,1.419,1.44,5.959,5.959,0,0,1,.619,1.23,1.431,1.431,0,0,0,1.334.95,1.4,1.4,0,0,0,1.131-.567,1.422,1.422,0,0,0,.222-1.268,7.489,7.489,0,0,0-.785-1.769,7.773,7.773,0,0,0-2.169-2.3,9.983,9.983,0,0,0-3.082-1.424,13.144,13.144,0,0,0-2.222-.406V58.446a1.2,1.2,0,0,0-2.394,0v3.563a12.7,12.7,0,0,0-3.018.5,9.334,9.334,0,0,0-3,1.492,6.888,6.888,0,0,0-1.967,2.343,6.586,6.586,0,0,0-.7,3.02,6.489,6.489,0,0,0,.521,2.676,5.7,5.7,0,0,0,1.618,2.067,10.232,10.232,0,0,0,2.676,1.523,24.423,24.423,0,0,0,3.782,1.127l.092.02V87.19c-.5-.047-.991-.115-1.459-.206a7.654,7.654,0,0,1-2.493-.923,5.68,5.68,0,0,1-1.8-1.725,6.289,6.289,0,0,1-.858-2.034,1.456,1.456,0,0,0-2.534-.6,1.425,1.425,0,0,0-.313,1.167,8.814,8.814,0,0,0,.745,2.318,7.549,7.549,0,0,0,2.211,2.686,10.308,10.308,0,0,0,3.5,1.686,15.577,15.577,0,0,0,3,.511v3.611a1.2,1.2,0,0,0,2.394,0V90.123a12.4,12.4,0,0,0,3.307-.572,9.724,9.724,0,0,0,3.148-1.665A7.841,7.841,0,0,0,75.3,85.31a7.246,7.246,0,0,0,.758-3.294,6.757,6.757,0,0,0-.507-2.72A6.321,6.321,0,0,0,74.2,77.314ZM61.939,73.023a7.359,7.359,0,0,1-1.99-1.008,3.069,3.069,0,0,1-.99-1.189,4.008,4.008,0,0,1-.295-1.6,3.645,3.645,0,0,1,1.609-3.157,7.79,7.79,0,0,1,4.087-1.176v8.816A22.266,22.266,0,0,1,61.939,73.023Zm6.663,4.8a11.49,11.49,0,0,1,2.724,1.146,3.592,3.592,0,0,1,1.359,1.379,4.426,4.426,0,0,1,.4,2,4.254,4.254,0,0,1-.472,2.016A4.417,4.417,0,0,1,71.241,85.9,6.885,6.885,0,0,1,69,86.908a11.044,11.044,0,0,1-2.246.334V77.325C67.435,77.5,68.054,77.662,68.6,77.826Z" fill="#0065a4"/>
    <path id="Path_587" data-name="Path 587" d="M102.177,65.546A17.937,17.937,0,0,0,90.251,70.09a25.47,25.47,0,0,0-50.225,4.728c-.017.381-.026.77-.026,1.156A25.461,25.461,0,0,0,85.927,91.128a17.951,17.951,0,1,0,16.25-25.582ZM65.469,99.05A23.1,23.1,0,0,1,42.393,75.974c0-.35.008-.7.024-1.049h0A23.076,23.076,0,1,1,65.469,99.05Zm36.708,0A15.5,15.5,0,0,1,87.519,88.71a25.413,25.413,0,0,0,3.238-15.769,15.553,15.553,0,1,1,11.42,26.109Z" fill="#0065a4" stroke="#0065a4" stroke-miterlimit="10" stroke-width="1"/>
    <line id="Line_86" data-name="Line 86" y2="16" transform="translate(102 75)" fill="none" stroke="#0065a4" stroke-miterlimit="10" stroke-width="3"/>
    <line id="Line_87" data-name="Line 87" x1="16" transform="translate(94 83)" fill="none" stroke="#0065a4" stroke-miterlimit="10" stroke-width="3"/>
  </g>
</svg>
