<svg xmlns="http://www.w3.org/2000/svg" width="53" height="53" viewBox="0 0 53 53">
  <g id="Group_318" data-name="Group 318" transform="translate(-765.808 -389.303)">
    <path id="Path_597" data-name="Path 597" d="M814.708,407.182H800.929V393.4a2.6,2.6,0,0,0-2.6-2.6H786.287a2.6,2.6,0,0,0-2.6,2.6v13.78H769.908a2.6,2.6,0,0,0-2.6,2.6v12.042a2.6,2.6,0,0,0,2.6,2.6h13.779V438.2a2.6,2.6,0,0,0,2.6,2.6h12.041a2.6,2.6,0,0,0,2.6-2.6V424.424h13.779a2.6,2.6,0,0,0,2.6-2.6V409.781A2.6,2.6,0,0,0,814.708,407.182Z" fill="none" stroke="#0065a4" stroke-miterlimit="10" stroke-width="3"/>
    <path id="Path_598" data-name="Path 598" d="M797.874,412.8c-1.228,0-2.576,1.779-3.189,2.579-.613-.8-1.959-2.579-3.189-2.579-1.909,0-3.189,1-3.189,2.579,0,3.724,6.378,7.091,6.378,7.091s6.378-3.367,6.378-7.091C801.063,413.8,799.785,412.8,797.874,412.8Z" transform="translate(-2.479 -2.274)" fill="none" stroke="#0065a4" stroke-miterlimit="10" stroke-width="3"/>
  </g>
</svg>
